<?xml version="1.0" encoding="UTF-8" standalone="no"?>
<!-- Generator: Gravit.io -->
<svg xmlns="http://www.w3.org/2000/svg" xmlns:xlink="http://www.w3.org/1999/xlink" style="isolation:isolate" viewBox="0 0 128 128" width="128pt" height="128pt"><defs><clipPath id="_clipPath_ZbepLW2HKHPubxtc6JyXfkeLF71y620V"><rect width="128" height="128"/></clipPath></defs><g clip-path="url(#_clipPath_ZbepLW2HKHPubxtc6JyXfkeLF71y620V)"><g><radialGradient id="_rgradient_8" fx="0.5000010909098842" fy="0.5000800000000005" cx="0.5" cy="0.5" r="1" gradientTransform="matrix(113.771,0,0,12.411,7.416,106.198)" gradientUnits="userSpaceOnUse"><stop offset="0%" stop-opacity="0.2" style="stop-color:rgb(0,0,0)"/><stop offset="100%" stop-opacity="0" style="stop-color:rgb(0,0,0)"/></radialGradient><path d=" M 121.187 112.405 C 121.182 115.809 95.504 118.609 64.302 118.609 C 33.099 118.609 7.422 115.809 7.416 112.405 C 7.416 112.405 7.416 112.404 7.416 112.404 C 7.416 108.999 33.095 106.198 64.302 106.198 C 95.508 106.198 121.187 108.999 121.187 112.404 C 121.187 112.404 121.187 112.405 121.187 112.405 Z " fill="url(#_rgradient_8)"/><g><g style="opacity:0.4;"><g opacity="0.4"><radialGradient id="_rgradient_9" fx="-0.0014017665636458787" fy="0.5000240003840091" cx="0.5" cy="0.5" r="1" gradientTransform="matrix(14.698,0,0,5.171,105.455,110.336)" gradientUnits="userSpaceOnUse"><stop offset="0%" stop-opacity="1" style="stop-color:rgb(24,24,24)"/><stop offset="100%" stop-opacity="0" style="stop-color:rgb(24,24,24)"/></radialGradient><rect x="105.455" y="110.336" width="14.698" height="5.171" transform="matrix(1,0,0,1,0,0)" fill="url(#_rgradient_9)"/></g><g opacity="0.4"><radialGradient id="_rgradient_10" fx="1.0013848778098662" fy="0.5000240003840091" cx="0.5" cy="0.5" r="1" gradientTransform="matrix(14.698,0,0,5.171,8.45,110.336)" gradientUnits="userSpaceOnUse"><stop offset="0%" stop-opacity="1" style="stop-color:rgb(24,24,24)"/><stop offset="100%" stop-opacity="0" style="stop-color:rgb(24,24,24)"/></radialGradient><rect x="8.45" y="110.336" width="14.698" height="5.171" transform="matrix(1,0,0,1,0,0)" fill="url(#_rgradient_10)"/></g><g opacity="0.4"><linearGradient id="_lgradient_4" x1="0.5377903908269221" y1="1.0039840637450226" x2="0.5377903908269223" y2="-0.00007200115201655422" gradientTransform="matrix(82.307,0,0,5.171,23.148,110.336)" gradientUnits="userSpaceOnUse"><stop offset="0%" stop-opacity="0" style="stop-color:rgb(24,24,24)"/><stop offset="50%" stop-opacity="1" style="stop-color:rgb(24,24,24)"/><stop offset="100%" stop-opacity="0" style="stop-color:rgb(24,24,24)"/></linearGradient><rect x="23.148" y="110.336" width="82.307" height="5.171" transform="matrix(1,0,0,1,0,0)" fill="url(#_lgradient_4)"/></g></g></g><radialGradient id="_rgradient_11" fx="0.5" fy="-0.002875058823529425" cx="0.5" cy="0.5" r="1" gradientTransform="matrix(105.497,0,0,105.497,11.553,6.906)" gradientUnits="userSpaceOnUse"><stop offset="0%" stop-opacity="1" style="stop-color:rgb(250,250,250)"/><stop offset="100%" stop-opacity="1" style="stop-color:rgb(225,225,225)"/></radialGradient><path d=" M 117.05 11.56 C 117.05 8.991 114.965 6.906 112.396 6.906 L 16.207 6.906 C 13.639 6.906 11.553 8.991 11.553 11.56 L 11.553 107.749 C 11.553 110.317 13.639 112.403 16.207 112.403 L 112.396 112.403 C 114.965 112.403 117.05 110.317 117.05 107.749 L 117.05 11.56 L 117.05 11.56 Z " fill-rule="evenodd" fill="url(#_rgradient_11)"/><mask id="_mask_0INlsB7YW20dgVhMj50t3BrgPdsGBxxv" x="-200%" y="-200%" width="400%" height="400%"><rect x="-200%" y="-200%" width="400%" height="400%" style="fill:white;"/><path d=" M 116.533 11.562 C 116.533 9.279 114.679 7.425 112.396 7.425 L 16.207 7.425 C 13.924 7.425 12.07 9.279 12.07 11.562 L 12.07 107.75 C 12.07 110.034 13.924 111.888 16.207 111.888 L 112.396 111.888 C 114.679 111.888 116.533 110.034 116.533 107.75 L 116.533 11.562 L 116.533 11.562 Z " fill-rule="evenodd" fill="black" stroke="none"/></mask><linearGradient id="_lgradient_5" x1="0.5000011881197529" y1="0.0024515662982703135" x2="0.5000011881197527" y2="0.9935549255880598"><stop offset="0%" stop-opacity="1" style="stop-color:rgb(255,255,255)"/><stop offset="3%" stop-opacity="0.235294" style="stop-color:rgb(255,255,255)"/><stop offset="96%" stop-opacity="0.156863" style="stop-color:rgb(255,255,255)"/><stop offset="100%" stop-opacity="0.392157" style="stop-color:rgb(255,255,255)"/></linearGradient><path d=" M 116.533 11.562 C 116.533 9.279 114.679 7.425 112.396 7.425 L 16.207 7.425 C 13.924 7.425 12.07 9.279 12.07 11.562 L 12.07 107.75 C 12.07 110.034 13.924 111.888 16.207 111.888 L 112.396 111.888 C 114.679 111.888 116.533 110.034 116.533 107.75 L 116.533 11.562 L 116.533 11.562 Z " fill-rule="evenodd" fill="none" mask="url(#_mask_0INlsB7YW20dgVhMj50t3BrgPdsGBxxv)" vector-effect="non-scaling-stroke" stroke-width="1.2" stroke="url(#_lgradient_5)" stroke-linejoin="round" stroke-linecap="round" stroke-miterlimit="4"/><path d=" M 116.533 11.562 C 116.533 9.279 114.679 7.425 112.396 7.425 L 16.207 7.425 C 13.924 7.425 12.07 9.279 12.07 11.562 L 12.07 107.75 C 12.07 110.034 13.924 111.888 16.207 111.888 L 112.396 111.888 C 114.679 111.888 116.533 110.034 116.533 107.75 L 116.533 11.562 L 116.533 11.562 Z " fill-rule="evenodd" fill="none"/><mask id="_mask_HGVzN0Pw5753kXVnp8TdtCtCY1hKxh0G" x="-200%" y="-200%" width="400%" height="400%"><rect x="-200%" y="-200%" width="400%" height="400%" style="fill:white;"/><path d=" M 117.567 11.562 C 117.567 8.708 115.25 6.391 112.396 6.391 L 16.207 6.391 C 13.353 6.391 11.036 8.708 11.036 11.562 L 11.036 107.75 C 11.036 110.605 13.353 112.922 16.207 112.922 L 112.396 112.922 C 115.25 112.922 117.567 110.605 117.567 107.75 L 117.567 11.562 L 117.567 11.562 Z " fill-rule="evenodd" fill="black" stroke="none"/></mask><path d=" M 117.567 11.562 C 117.567 8.708 115.25 6.391 112.396 6.391 L 16.207 6.391 C 13.353 6.391 11.036 8.708 11.036 11.562 L 11.036 107.75 C 11.036 110.605 13.353 112.922 16.207 112.922 L 112.396 112.922 C 115.25 112.922 117.567 110.605 117.567 107.75 L 117.567 11.562 L 117.567 11.562 Z " fill-rule="evenodd" fill="none" mask="url(#_mask_HGVzN0Pw5753kXVnp8TdtCtCY1hKxh0G)" vector-effect="non-scaling-stroke" stroke-width="1.2" stroke="rgb(0,0,0)" stroke-opacity="0.25" stroke-linejoin="miter" stroke-linecap="butt" stroke-miterlimit="4"/><path d=" M 117.567 11.562 C 117.567 8.708 115.25 6.391 112.396 6.391 L 16.207 6.391 C 13.353 6.391 11.036 8.708 11.036 11.562 L 11.036 107.75 C 11.036 110.605 13.353 112.922 16.207 112.922 L 112.396 112.922 C 115.25 112.922 117.567 110.605 117.567 107.75 L 117.567 11.562 L 117.567 11.562 Z " fill-rule="evenodd" fill="none"/></g><path d=" M 42.002 69.464 L 42.002 77.42 L 42.002 77.42 Q 42.002 80.152 43.569 81.384 L 43.569 81.384 L 43.569 81.384 Q 45.136 82.617 48.163 82.67 L 48.163 82.67 L 48.163 86.42 L 48.163 86.42 Q 43.073 86.367 40.288 84.09 L 40.288 84.09 L 40.288 84.09 Q 37.502 81.813 37.502 77.688 L 37.502 77.688 L 37.502 69.572 L 37.502 69.572 Q 37.502 66.786 35.814 65.594 L 35.814 65.594 L 35.814 65.594 Q 34.127 64.402 30.912 64.402 L 30.912 64.402 L 30.912 60.625 L 30.912 60.625 Q 34.395 60.571 35.948 59.339 L 35.948 59.339 L 35.948 59.339 Q 37.502 58.107 37.502 55.536 L 37.502 55.536 L 37.502 47.339 L 37.502 47.339 Q 37.502 43.187 40.395 40.883 L 40.395 40.883 L 40.395 40.883 Q 43.288 38.58 48.163 38.58 L 48.163 38.58 L 48.163 42.303 L 48.163 42.303 Q 42.002 42.464 42.002 47.634 L 42.002 47.634 L 42.002 55.536 L 42.002 55.536 Q 42.002 61.295 36.029 62.339 L 36.029 62.339 L 36.029 62.661 L 36.029 62.661 Q 42.002 63.705 42.002 69.464 L 42.002 69.464 Z " fill="rgb(9,123,204)"/><path d=" M 77.28 80.472 L 55.449 80.472 L 55.449 41.31 L 60.002 41.31 L 60.002 76.347 L 77.28 76.347 L 77.28 80.472 Z " fill="rgb(15,140,230)"/><path d=" M 92.521 62.661 L 92.521 62.339 L 92.521 62.339 Q 86.548 61.295 86.548 55.536 L 86.548 55.536 L 86.548 47.634 L 86.548 47.634 Q 86.548 42.464 80.467 42.303 L 80.467 42.303 L 80.467 38.58 L 80.467 38.58 Q 85.396 38.58 88.222 40.91 L 88.222 40.91 L 88.222 40.91 Q 91.048 43.241 91.048 47.339 L 91.048 47.339 L 91.048 55.536 L 91.048 55.536 Q 91.048 58.134 92.628 59.353 L 92.628 59.353 L 92.628 59.353 Q 94.209 60.571 97.691 60.625 L 97.691 60.625 L 97.691 64.402 L 97.691 64.402 Q 94.423 64.402 92.735 65.594 L 92.735 65.594 L 92.735 65.594 Q 91.048 66.786 91.048 69.572 L 91.048 69.572 L 91.048 77.688 L 91.048 77.688 Q 91.048 81.786 88.302 84.076 L 88.302 84.076 L 88.302 84.076 Q 85.557 86.367 80.467 86.42 L 80.467 86.42 L 80.467 82.67 L 80.467 82.67 Q 83.441 82.617 84.994 81.384 L 84.994 81.384 L 84.994 81.384 Q 86.548 80.152 86.548 77.42 L 86.548 77.42 L 86.548 69.464 L 86.548 69.464 Q 86.548 66.411 88.021 64.804 L 88.021 64.804 L 88.021 64.804 Q 89.494 63.196 92.521 62.661 L 92.521 62.661 Z " fill="rgb(9,123,204)"/></g></svg>